<?xml version="1.0" standalone="no"?>
<!DOCTYPE svg PUBLIC "-//W3C//DTD SVG 20010904//EN"
 "http://www.w3.org/TR/2001/REC-SVG-20010904/DTD/svg10.dtd">
<svg version="1.0" xmlns="http://www.w3.org/2000/svg"
 width="813.000000pt" height="813.000000pt" viewBox="0 0 813.000000 813.000000"
 preserveAspectRatio="xMidYMid meet">
<metadata>
Created by potrace 1.14, written by Peter Selinger 2001-2017
</metadata>
<g transform="translate(0.000000,813.000000) scale(0.100000,-0.100000)"
fill="#000000" stroke="none">
<path d="M4088 7094 c-6 -13 -15 -21 -19 -18 -5 3 -6 -2 -3 -10 3 -9 1 -16 -5
-16 -6 0 -10 -3 -9 -7 3 -17 -15 -42 -26 -36 -6 3 -8 3 -4 -2 9 -9 -29 -85
-42 -85 -6 0 -9 -3 -9 -7 3 -20 -3 -34 -23 -54 -13 -12 -17 -18 -9 -14 8 4 1
-12 -15 -36 -16 -24 -36 -56 -43 -71 -8 -15 -19 -25 -24 -21 -6 3 -7 1 -3 -5
3 -6 1 -16 -6 -24 -7 -7 -15 -22 -16 -33 -2 -11 -10 -24 -18 -28 -8 -4 -14
-15 -14 -22 0 -8 -9 -24 -20 -35 -11 -11 -20 -22 -20 -25 -1 -14 -15 -42 -28
-57 -8 -10 -11 -18 -6 -18 5 0 4 -4 -2 -8 -6 -4 -28 -38 -49 -77 -21 -38 -41
-72 -44 -75 -15 -13 -33 -59 -27 -69 4 -7 1 -9 -8 -5 -10 4 -17 -2 -22 -20 -3
-14 -10 -26 -14 -26 -4 0 -11 -8 -14 -17 -4 -10 -18 -36 -31 -58 -14 -22 -28
-47 -32 -55 -3 -8 -15 -27 -26 -42 -11 -15 -16 -31 -12 -39 5 -7 4 -10 -2 -6
-12 8 -26 -20 -17 -34 3 -5 0 -8 -8 -7 -7 2 -12 -5 -12 -14 1 -10 -3 -15 -9
-11 -6 4 -8 0 -4 -11 4 -10 3 -15 -3 -11 -11 7 -33 -32 -25 -45 4 -6 1 -9 -6
-8 -6 2 -14 -3 -17 -11 -3 -10 0 -11 9 -5 8 4 1 -6 -16 -23 -37 -38 -87 -131
-78 -146 3 -5 1 -7 -4 -4 -6 4 -20 -9 -32 -29 -24 -40 -26 -48 -9 -38 7 5 8 3
4 -5 -5 -7 -11 -10 -14 -7 -9 9 -44 -55 -38 -70 3 -7 0 -16 -6 -20 -7 -4 -8
-3 -4 4 4 7 3 12 -2 12 -6 0 -13 -7 -16 -16 -9 -23 -8 -26 7 -18 7 4 9 3 4 -2
-5 -5 -14 -9 -20 -9 -7 0 -12 -10 -11 -22 0 -12 -4 -19 -9 -16 -6 4 -8 -1 -4
-11 4 -9 3 -15 -2 -12 -13 9 -34 -21 -25 -36 4 -7 3 -10 -1 -5 -11 9 -58 -70
-50 -83 4 -6 1 -9 -7 -8 -8 2 -13 -6 -12 -19 0 -12 -4 -21 -9 -20 -6 1 -15 -7
-21 -18 -14 -25 -91 -157 -119 -204 -12 -19 -16 -31 -9 -27 8 5 10 2 6 -9 -4
-9 -9 -14 -12 -11 -5 6 -42 -38 -42 -51 0 -4 8 1 17 12 14 18 15 18 9 2 -3
-10 -6 -21 -6 -23 0 -2 -7 -4 -15 -4 -8 0 -20 -10 -26 -22 -12 -22 -11 -22 6
-8 17 14 17 14 5 -7 -8 -12 -17 -20 -20 -18 -9 5 -45 -57 -42 -72 2 -11 -36
-83 -45 -83 -2 0 -1 5 2 10 3 6 4 10 2 10 -3 0 -15 -17 -27 -37 -17 -29 -18
-34 -4 -22 16 13 16 12 5 -8 -6 -13 -17 -22 -23 -20 -6 1 -13 -5 -15 -13 -4
-13 -3 -13 6 0 14 19 14 5 1 -21 -6 -10 -18 -19 -28 -20 -10 0 -12 -3 -5 -6
10 -3 9 -11 -3 -34 -8 -16 -19 -27 -24 -24 -6 3 -7 0 -4 -8 3 -8 -1 -21 -8
-28 -7 -8 -19 -26 -27 -41 -8 -15 -19 -25 -24 -21 -6 4 -7 1 -2 -7 5 -8 -1
-20 -16 -32 -13 -11 -18 -17 -10 -13 9 5 8 -1 -4 -19 -16 -24 -34 -39 -20 -16
4 6 1 17 -5 25 -10 12 -10 15 0 15 8 0 10 3 7 6 -4 4 -13 1 -22 -6 -12 -10
-15 -10 -15 0 0 8 -3 10 -6 7 -10 -10 17 -38 30 -30 8 4 7 2 -1 -7 -6 -7 -9
-18 -7 -25 3 -7 1 -16 -4 -19 -5 -3 -8 6 -6 19 3 28 0 29 -26 15 -13 -7 -21
-7 -25 0 -3 5 -11 10 -16 10 -6 0 -7 -6 -2 -12 11 -19 12 -37 3 -43 -5 -3 -7
4 -5 15 2 12 -3 24 -15 30 -27 15 -30 13 -21 -13 7 -17 6 -24 -4 -24 -7 0 -10
8 -8 17 2 9 -3 22 -11 29 -9 8 -16 10 -16 5 0 -4 -7 1 -16 12 -14 18 -15 18
-4 -4 7 -15 8 -28 1 -40 -8 -12 -10 -13 -11 -3 0 8 -3 11 -6 8 -4 -3 -15 -2
-24 3 -13 7 -20 6 -24 -6 -6 -17 -26 -10 -26 9 0 8 3 8 9 -1 7 -11 9 -11 14 1
3 9 16 13 31 12 14 -2 26 1 26 6 0 5 -17 7 -37 5 -21 -3 -38 -5 -38 -6 0 -2
-10 -4 -22 -5 -13 -1 -23 2 -23 7 0 5 -4 6 -10 3 -5 -3 -10 -14 -10 -23 0 -15
2 -15 10 -2 9 13 10 13 10 0 0 -12 2 -12 9 -1 6 9 11 10 15 2 6 -10 -6 -15
-26 -12 -5 0 -8 -4 -8 -11 0 -6 -6 -3 -14 7 -8 11 -12 24 -9 30 4 5 3 7 -2 3
-4 -4 -13 -4 -19 2 -8 6 -12 2 -13 -13 -1 -13 1 -17 5 -10 5 9 12 6 21 -10 13
-19 12 -20 -1 -10 -11 9 -17 10 -26 1 -12 -12 -46 -3 -37 11 3 5 -5 17 -17 25
-20 14 -24 14 -40 -1 -10 -8 -15 -20 -12 -24 3 -5 -1 -6 -9 -3 -10 4 -14 -3
-13 -25 1 -28 16 -58 16 -33 0 7 5 12 11 12 8 0 8 -4 0 -14 -9 -11 -8 -15 5
-20 22 -8 22 -8 19 12 -1 9 0 11 2 5 3 -7 9 -13 14 -13 5 0 9 -5 9 -11 0 -5
-4 -7 -10 -4 -5 3 -10 1 -10 -5 0 -6 -12 -3 -27 7 -16 9 -25 13 -21 8 4 -4 3
-14 -3 -22 -9 -9 -8 -13 0 -13 6 0 11 5 11 10 0 6 4 10 10 10 5 0 7 -6 4 -14
-3 -8 -1 -17 5 -21 7 -4 8 0 4 11 -3 10 -2 15 3 12 5 -3 19 -2 31 3 16 6 21
14 17 26 -4 12 -1 10 11 -5 13 -18 15 -26 6 -35 -9 -9 -10 -7 -5 8 7 17 6 18
-8 5 -19 -18 -13 -32 10 -28 9 2 16 -2 15 -8 -1 -6 5 -11 13 -11 11 0 11 4 -3
19 -9 10 -11 18 -5 18 15 0 42 -41 35 -53 -3 -6 -1 -7 6 -3 9 6 8 14 -4 32
-18 28 0 34 22 7 9 -11 8 -5 -2 12 l-18 30 32 -30 c20 -19 30 -24 26 -12 -4 9
-3 17 3 17 6 0 13 -6 15 -12 4 -10 6 -10 6 0 2 20 27 14 39 -10 l11 -23 -3 23
c-1 13 -9 28 -17 33 -11 7 -11 9 -1 9 7 0 10 5 6 12 -4 7 -3 8 5 4 6 -4 9 -11
6 -16 -3 -4 1 -13 9 -19 11 -9 15 -9 19 1 4 10 6 10 6 -1 1 -11 4 -11 18 0 12
10 14 10 9 1 -4 -7 -1 -15 8 -18 9 -3 14 -9 12 -13 -3 -4 4 -8 15 -8 10 -1 19
3 19 8 0 6 -5 7 -12 3 -6 -4 -8 -3 -4 4 3 6 -1 13 -9 15 -11 4 -10 4 2 3 10
-1 24 5 31 14 8 9 11 10 6 1 -3 -7 0 -17 7 -22 10 -6 11 -9 2 -9 -7 0 -13 -9
-13 -19 0 -23 -16 -36 -25 -21 -3 5 -12 10 -18 10 -7 0 -4 -5 6 -11 22 -13 22
-24 -5 -62 -13 -18 -21 -32 -19 -32 2 0 -6 -19 -18 -42 -12 -24 -24 -43 -27
-43 -3 0 -2 5 2 12 4 7 3 8 -5 4 -6 -4 -9 -12 -6 -17 6 -9 -61 -128 -80 -141
-5 -4 -11 -12 -11 -18 -1 -5 -2 -15 -3 -21 0 -5 -7 -7 -13 -3 -8 5 -7 0 2 -11
14 -17 13 -18 -2 -13 -12 5 -16 1 -14 -17 2 -18 -1 -22 -16 -20 -11 2 -16 0
-12 -6 9 -15 -17 -60 -29 -52 -6 3 -8 2 -5 -3 9 -15 -11 -56 -23 -48 -8 4 -9
3 -5 -4 8 -13 -10 -49 -36 -73 -14 -12 -15 -18 -5 -29 9 -10 9 -11 0 -6 -7 4
-13 2 -13 -4 0 -6 -4 -9 -9 -6 -5 4 -8 -5 -6 -19 2 -20 0 -23 -12 -14 -11 10
-12 8 -7 -6 5 -12 4 -16 -4 -11 -6 3 -14 1 -18 -5 -4 -8 -3 -9 4 -5 15 9 15 1
1 -25 -5 -11 -14 -17 -18 -14 -5 2 -8 -3 -7 -13 0 -9 -5 -16 -12 -14 -8 1 -11
-2 -7 -7 3 -6 -2 -25 -12 -43 -9 -18 -16 -36 -15 -40 1 -5 -3 -8 -8 -8 -6 0
-15 -10 -20 -22 -25 -56 -57 -103 -69 -100 -7 1 -10 -2 -6 -8 9 -15 -14 -52
-28 -43 -9 5 -9 3 -1 -8 9 -11 9 -17 -1 -26 -7 -6 -16 -9 -21 -5 -4 4 -4 1 0
-5 8 -14 -24 -74 -35 -67 -4 2 -11 -1 -15 -7 -4 -8 -3 -9 4 -5 16 10 15 -5 -2
-26 -7 -10 -17 -14 -21 -10 -5 4 -5 1 -1 -6 4 -7 0 -25 -10 -40 -20 -28 -37
-59 -61 -105 -8 -15 -19 -24 -25 -21 -7 4 -8 2 -4 -4 10 -16 -12 -54 -26 -46
-6 4 -8 3 -4 -4 3 -6 -15 -46 -40 -89 -49 -83 -62 -104 -113 -196 -19 -32 -37
-54 -43 -50 -7 3 -8 1 -4 -6 7 -10 -21 -62 -140 -261 -18 -30 -31 -56 -30 -57
2 -2 425 -3 940 -3 932 0 938 0 967 21 16 11 34 17 40 13 7 -4 9 -3 6 2 -6 10
417 267 440 267 7 0 10 3 8 7 -4 7 79 52 91 50 3 -1 11 5 17 13 7 8 32 25 57
38 25 13 47 27 48 32 2 4 10 7 18 7 8 0 14 5 14 11 0 5 5 7 10 4 6 -3 10 -1
10 4 0 6 6 11 14 11 7 0 19 7 26 15 7 8 16 12 21 9 5 -3 12 2 15 10 3 9 10 14
14 11 5 -3 16 2 24 11 9 8 16 12 16 7 0 -4 4 -3 8 2 4 6 16 17 26 25 18 13 19
13 12 0 -4 -8 0 -6 8 4 9 11 16 17 16 13 0 -3 11 4 25 17 15 14 35 22 50 21
14 -2 23 1 19 6 -3 5 -10 6 -16 3 -7 -4 -8 -2 -4 4 4 6 14 8 23 5 11 -4 14 -3
9 5 -10 17 33 -3 112 -50 34 -21 64 -38 66 -38 4 0 148 -81 191 -107 11 -7 29
-16 40 -21 11 -6 123 -69 248 -141 125 -72 232 -131 237 -131 6 0 10 -4 10
-10 0 -5 6 -10 14 -10 8 0 16 -4 18 -9 2 -5 10 -11 18 -13 8 -2 21 -9 28 -16
8 -7 18 -10 23 -7 5 4 9 1 9 -4 0 -6 7 -11 15 -11 8 0 15 -4 15 -10 0 -5 7
-10 15 -10 8 0 15 -4 15 -10 0 -5 7 -10 16 -10 9 0 12 -5 8 -12 -4 -7 -4 -10
1 -6 4 4 15 2 23 -5 13 -10 14 -9 7 3 -6 11 -3 10 12 -3 18 -16 75 -17 950
-15 l931 3 -146 250 c-222 382 -374 647 -391 680 -9 16 -20 33 -24 36 -4 3 -9
15 -10 27 0 11 -4 19 -7 17 -7 -4 -110 169 -110 185 0 5 -4 10 -10 10 -5 0
-10 4 -10 10 0 5 -13 31 -29 59 -16 27 -27 52 -24 55 4 3 1 6 -5 6 -6 0 -17
12 -25 28 -8 15 -38 68 -67 117 -29 50 -64 110 -77 135 -14 25 -29 49 -34 55
-17 17 -9 27 16 23 17 -4 29 0 36 11 8 14 9 13 7 -4 -3 -19 4 -20 100 -23 69
-2 102 1 102 8 0 6 4 9 9 6 16 -10 79 23 101 53 12 17 27 28 34 25 8 -3 16 2
19 13 4 16 5 16 6 1 1 -21 56 -26 64 -5 3 6 6 7 6 1 2 -19 58 -3 70 19 6 12 9
14 7 5 -9 -33 37 -3 51 33 11 29 12 30 8 6 -4 -19 -2 -26 5 -22 5 3 10 13 10
21 0 8 4 12 10 9 6 -4 7 1 3 11 -4 11 -2 15 4 11 6 -4 14 0 17 8 3 8 9 14 13
13 4 -2 37 6 71 16 75 23 128 70 138 122 3 19 12 34 19 34 8 0 21 7 29 16 9 8
16 13 16 9 0 -3 13 1 30 10 36 18 78 87 84 138 5 40 5 40 -49 3 -16 -11 -39
-22 -51 -24 -19 -2 -22 2 -21 30 2 28 6 33 30 36 15 2 25 6 23 10 -2 4 10 8
27 8 18 1 34 -2 38 -7 3 -5 20 4 39 19 66 54 112 101 105 112 -3 5 -2 10 4 10
5 0 9 21 9 46 l0 46 -21 -20 c-12 -11 -33 -25 -46 -32 -21 -11 -26 -10 -38 6
-7 10 -13 22 -13 27 0 4 -3 6 -7 4 -5 -3 -9 7 -10 23 -2 24 3 29 40 40 23 6
48 17 56 23 10 9 16 7 27 -8 8 -10 14 -27 14 -37 0 -28 26 -11 46 30 22 46 28
195 7 188 -7 -3 -18 5 -24 17 -6 12 -31 47 -55 78 -42 55 -42 56 -23 73 11 9
17 21 14 26 -3 6 1 7 9 4 22 -8 73 -101 81 -146 6 -32 9 -35 21 -23 21 21 44
80 44 113 0 40 -25 109 -56 154 -25 35 -25 37 -9 68 9 18 15 50 14 73 -3 47
-45 139 -82 177 -17 18 -26 41 -29 78 -6 60 -69 168 -93 158 -8 -3 -12 0 -9 7
2 7 -3 22 -13 32 -10 11 -20 29 -21 40 -2 11 -15 35 -29 54 -20 26 -28 30 -35
20 -8 -11 -9 -11 -5 2 4 11 -10 29 -40 54 -36 30 -47 35 -54 24 -8 -11 -9 -9
-7 6 2 12 -2 19 -9 17 -7 -1 -13 2 -13 7 0 16 -68 51 -74 38 -2 -7 -5 -6 -5 4
-1 22 -92 63 -104 46 -6 -8 -7 -7 -3 5 4 13 -4 20 -32 29 -20 7 -39 14 -42 14
-3 0 -31 11 -64 23 -65 25 -99 24 -50 -1 17 -9 34 -13 38 -10 3 4 6 0 6 -8 0
-11 2 -11 10 1 8 13 10 12 10 -3 0 -10 5 -15 10 -12 6 3 10 2 10 -3 0 -5 24
-19 53 -33 28 -13 73 -38 99 -56 31 -22 48 -28 52 -20 2 7 5 5 5 -4 1 -20 65
-71 76 -61 5 4 4 1 0 -7 -6 -11 -4 -13 8 -8 11 4 14 2 10 -9 -5 -13 -8 -13
-23 1 -9 8 -20 15 -25 15 -4 0 -35 20 -69 44 -69 49 -138 86 -161 86 -8 0 -15
3 -15 8 0 9 -81 35 -88 28 -2 -3 8 -10 23 -16 15 -6 26 -13 23 -16 -3 -2 -49
9 -102 27 -53 17 -102 29 -109 26 -7 -3 -5 -7 8 -12 87 -32 397 -187 423 -212
7 -7 18 -13 23 -13 5 0 18 -14 28 -31 12 -19 21 -26 26 -20 7 12 56 -23 124
-86 19 -18 39 -29 44 -26 6 3 7 1 4 -5 -4 -5 6 -23 23 -39 16 -15 30 -31 30
-35 0 -5 -9 1 -20 12 -23 23 -46 26 -54 8 -3 -7 -3 -3 0 10 4 16 0 24 -13 29
-10 3 -28 15 -41 26 -25 23 -40 16 -47 -23 -2 -12 -7 -25 -10 -29 -5 -5 -3 14
5 54 5 22 -1 31 -30 43 -16 8 -30 20 -30 28 0 7 -6 11 -14 8 -7 -3 -37 6 -67
20 -35 18 -55 22 -60 15 -3 -6 -9 -2 -12 11 -4 16 -11 20 -31 16 -15 -3 -24
-1 -21 4 9 15 -37 23 -47 9 -8 -11 -9 -10 -4 3 7 24 -91 58 -106 37 -8 -11 -9
-10 -4 3 4 13 -2 19 -22 24 -15 3 -34 8 -42 11 -8 3 -37 11 -65 18 -27 8 -58
17 -67 20 -10 4 -18 3 -18 -3 0 -14 87 -45 102 -36 7 4 10 4 6 -1 -7 -8 174
-97 200 -98 6 0 12 -4 12 -8 0 -4 16 -13 35 -20 19 -7 35 -17 35 -21 0 -13 28
-9 34 5 3 6 5 3 3 -8 -2 -14 -10 -20 -27 -21 -37 0 -146 22 -219 45 -35 11
-60 16 -55 12 12 -11 107 -46 117 -43 4 1 7 -2 7 -7 0 -4 21 -14 48 -20 26 -7
54 -16 63 -21 9 -4 52 -7 96 -7 50 1 79 -2 77 -8 -2 -5 23 -27 56 -49 33 -21
63 -42 65 -47 8 -12 -6 -59 -16 -59 -6 0 -5 8 0 19 10 18 6 19 -82 19 -101 0
-104 0 -162 26 -38 17 -144 59 -155 61 -3 1 -18 7 -33 13 -16 7 -33 9 -39 6
-6 -4 -8 -3 -5 2 7 12 -109 48 -125 38 -7 -4 -8 -3 -4 4 5 8 -1 12 -15 12 -19
0 -117 26 -179 48 -8 3 -21 4 -28 3 -7 -1 -11 2 -10 7 3 7 -49 62 -58 62 -14
0 1 -23 24 -38 16 -9 27 -23 25 -29 -3 -7 0 -13 6 -13 18 0 19 0 55 -15 18 -8
36 -11 40 -8 3 4 6 1 6 -5 0 -7 6 -12 14 -12 8 0 21 -6 29 -14 17 -18 88 -56
102 -56 5 0 1 7 -9 15 -17 13 -18 15 -3 15 15 0 21 -11 18 -32 0 -4 22 -18 49
-32 39 -20 50 -22 50 -11 0 8 4 15 10 15 5 0 7 -6 4 -14 -5 -14 26 -38 43 -35
4 1 21 -3 36 -9 16 -7 33 -10 38 -6 5 3 9 1 9 -5 0 -5 10 -13 23 -17 12 -4 54
-25 92 -47 39 -22 76 -40 82 -40 7 0 11 -2 8 -5 -2 -2 34 -29 81 -60 59 -39
80 -58 72 -64 -12 -8 -173 -3 -243 8 -37 6 -127 34 -140 44 -5 5 -19 10 -30
12 -11 1 -22 5 -25 8 -12 12 -362 126 -415 135 -54 8 -84 18 -80 26 3 4 1 10
-4 13 -5 4 -8 -2 -7 -11 2 -9 9 -19 17 -21 30 -10 126 -57 161 -80 21 -13 42
-21 49 -16 7 4 10 3 6 -3 -8 -13 20 -26 35 -16 6 3 9 2 5 -3 -5 -9 179 -91
258 -114 22 -7 65 -26 95 -43 79 -44 245 -153 260 -172 7 -8 18 -15 24 -15 6
0 16 -8 23 -19 10 -16 8 -18 -10 -17 -17 1 -25 -8 -34 -39 -23 -72 -24 -71 85
-70 l97 1 36 -35 c19 -20 52 -58 73 -86 l38 -50 -54 -12 c-106 -25 -123 -25
-143 -3 -10 11 -21 17 -25 15 -4 -3 -10 2 -14 10 -8 22 -127 106 -140 98 -6
-3 -8 -3 -4 2 9 9 -58 56 -83 58 -10 1 -16 3 -14 6 3 2 -3 10 -13 17 -14 11
-11 12 22 3 21 -6 47 -8 57 -6 11 3 17 1 13 -4 -3 -5 5 -9 18 -9 20 0 26 8 36
46 7 25 10 49 7 54 -2 4 -31 8 -62 8 -62 1 -131 9 -143 17 -5 3 -13 -9 -19
-25 -5 -17 -12 -30 -15 -30 -3 0 -1 12 4 26 13 33 13 35 -2 33 -7 -1 -30 1
-51 5 -26 6 -42 4 -54 -5 -10 -9 -14 -9 -10 -2 9 14 -20 32 -45 28 -10 -2 -18
1 -18 7 0 5 -8 8 -17 7 -10 -1 -25 1 -33 4 -21 9 -222 77 -240 81 -29 7 -141
47 -158 56 -43 24 -102 50 -102 45 0 -2 21 -16 48 -29 52 -28 46 -33 -14 -12
-37 13 -146 32 -114 20 18 -7 33 -11 43 -13 4 0 23 -7 42 -15 20 -9 36 -15 38
-15 5 1 44 -13 59 -22 10 -5 22 -9 28 -9 6 0 49 -18 96 -40 47 -22 88 -40 91
-40 2 0 31 -13 63 -29 32 -16 61 -27 64 -23 3 3 6 0 6 -6 0 -6 16 -16 35 -23
19 -7 35 -16 35 -20 0 -6 35 -21 68 -30 4 -1 12 -9 18 -17 7 -9 16 -12 25 -7
8 5 11 5 7 1 -4 -5 37 -37 90 -73 53 -36 108 -74 121 -84 13 -10 27 -16 32
-13 5 3 8 1 7 -4 -2 -6 11 -22 27 -36 l30 -26 -25 -1 c-29 -2 -21 -2 -90 5
-152 14 -214 29 -315 77 -49 23 -95 42 -102 42 -7 0 -13 4 -13 9 0 4 -7 8 -15
8 -8 0 -23 4 -33 10 -33 18 -160 59 -166 53 -3 -4 -6 -1 -6 5 0 5 -28 17 -62
26 -35 8 -92 22 -127 31 -35 8 -66 13 -69 10 -3 -2 4 -7 14 -11 47 -15 204
-78 252 -101 57 -27 64 -44 10 -23 -129 49 -238 93 -270 111 -10 5 -18 5 -18
0 0 -6 274 -147 375 -192 37 -16 208 -80 224 -83 51 -10 151 -73 257 -163 28
-23 54 -41 57 -38 4 3 5 2 2 -2 -3 -3 5 -18 17 -32 13 -14 16 -21 8 -15 -8 6
-41 12 -72 13 -31 1 -71 6 -89 11 -17 5 -35 7 -39 5 -4 -2 -22 0 -41 5 -19 5
-52 11 -74 14 -46 6 -100 24 -165 56 -49 25 -129 60 -136 60 -2 0 -4 -8 -5
-17 -1 -12 -4 -10 -9 7 -7 23 -8 23 -9 3 -1 -12 -5 -24 -10 -27 -4 -3 -6 5 -4
18 5 27 -27 52 -53 42 -9 -3 -12 -1 -9 4 3 6 1 10 -4 10 -6 0 -11 -9 -11 -21
0 -11 5 -17 10 -14 6 3 10 1 10 -5 0 -6 5 -8 10 -5 6 3 10 1 10 -5 0 -6 5 -8
12 -4 6 4 8 3 4 -4 -4 -7 -28 -3 -74 15 -37 14 -76 28 -87 30 -11 3 -29 9 -40
13 -11 5 -45 19 -75 31 -63 25 -90 45 -48 35 14 -3 33 -9 42 -12 9 -3 16 -1
16 5 0 11 -32 16 -80 13 -13 -1 -28 4 -32 11 -6 9 -8 8 -8 -3 0 -8 24 -28 53
-44 137 -75 177 -95 177 -91 0 2 21 -7 47 -22 61 -34 233 -104 233 -95 0 4 4
2 8 -4 4 -5 46 -22 94 -37 47 -15 92 -34 99 -43 7 -8 18 -13 26 -10 8 3 11 1
8 -4 -8 -14 36 -51 53 -45 7 3 11 1 8 -4 -3 -5 16 -28 42 -52 26 -24 52 -51
57 -59 4 -8 5 -12 0 -8 -4 4 -16 3 -26 -3 -11 -5 -19 -6 -19 -1 0 9 -34 13
-132 16 -31 0 -54 4 -51 9 2 4 -4 7 -14 7 -37 1 -99 12 -116 22 -10 5 -21 7
-24 4 -3 -3 -14 -1 -24 5 -16 8 -21 6 -29 -13 l-11 -23 5 23 c2 12 1 22 -2 23
-15 1 -40 8 -111 28 -41 11 -77 18 -82 16 -4 -3 -9 0 -11 5 -2 6 -10 12 -18
14 -8 2 -22 6 -30 9 -94 36 -135 46 -142 34 -6 -9 -8 -8 -8 4 0 10 -29 27 -80
49 l-80 34 -85 145 -84 146 37 5 c34 5 35 6 12 13 -14 3 -34 7 -46 7 -14 0
-27 13 -42 43 -12 23 -32 58 -44 77 l-23 35 32 -23 c18 -13 38 -20 44 -16 8 4
9 3 5 -4 -4 -7 7 -18 26 -28 18 -9 36 -22 40 -28 4 -6 8 -7 8 -3 0 4 15 -3 33
-17 19 -15 37 -26 42 -26 4 0 -41 37 -101 82 -111 83 -190 155 -181 164 10 11
204 10 285 -1 45 -6 82 -8 82 -3 0 7 -22 12 -41 10 -4 -1 -21 3 -39 8 -44 13
-170 25 -250 24 l-65 0 -49 87 c-44 77 -53 98 -43 99 1 1 20 5 42 11 102 24
117 23 164 -18 24 -21 45 -37 47 -36 2 1 20 -14 40 -33 21 -19 42 -34 47 -34
5 0 26 -13 46 -28 20 -15 50 -34 66 -42 17 -8 32 -17 35 -20 9 -9 49 -30 57
-30 4 0 -17 17 -47 37 -58 38 -122 88 -179 138 -18 17 -38 29 -43 27 -5 -1 -7
2 -4 7 3 5 -6 16 -20 26 -28 18 -26 26 8 30 37 4 38 4 38 20 0 11 -13 15 -54
15 -52 0 -56 2 -89 43 -19 23 -43 58 -53 77 -10 19 -22 37 -25 40 -3 3 -9 17
-13 33 -5 20 -3 27 9 27 8 0 15 3 15 8 0 4 12 7 28 8 15 0 45 4 67 8 59 12
165 14 158 3 -7 -12 75 -89 88 -82 5 4 8 1 7 -6 -2 -7 29 -34 67 -61 69 -48
155 -100 155 -93 0 2 -33 28 -72 58 -40 30 -95 76 -123 103 -27 26 -54 47 -60
45 -5 -1 -7 1 -2 5 4 4 -1 16 -10 27 -18 19 -17 19 77 13 52 -3 122 -9 155
-12 69 -7 72 1 5 11 -47 7 -49 8 -90 18 -26 7 -102 17 -155 20 -26 2 -94 47
-71 47 4 0 -2 14 -14 31 -12 16 -23 44 -24 61 -1 28 2 31 39 35 37 4 73 9 85
13 3 1 30 1 60 0 42 -1 57 -6 69 -22 29 -42 98 -101 192 -164 53 -35 100 -64
105 -64 5 0 -3 8 -16 17 -65 44 -172 137 -210 183 l-42 50 93 -5 94 -4 -70 14
c-75 16 -113 23 -131 24 -15 1 -57 104 -52 127 4 20 21 24 111 26 45 1 67 5
67 13 0 17 -24 22 -97 19 -35 -1 -63 1 -63 5 0 11 81 49 112 53 15 2 30 7 34
11 4 4 20 7 36 7 16 0 28 6 28 13 0 6 5 4 11 -6 8 -14 14 -15 24 -7 9 8 50 10
125 7 108 -5 141 0 63 10 -21 2 -47 6 -58 8 -11 2 -31 4 -45 5 -24 1 -24 1 -5
12 11 6 23 16 27 22 6 8 8 8 8 0 0 -7 13 -10 33 -7 17 2 65 4 106 4 41 -1 71
2 67 6 -10 10 -160 18 -196 10 -8 -2 -31 -7 -50 -11 -19 -5 -39 -12 -45 -16
-5 -5 -36 -11 -67 -15 -32 -4 -58 -12 -58 -19 0 -8 -2 -8 -8 1 -17 27 -152
-46 -152 -83 0 -7 -19 -15 -42 -19 -52 -9 -128 -43 -128 -58 0 -6 -3 -8 -6 -4
-7 7 -38 -24 -47 -48 -7 -17 -6 -17 15 -1 32 23 122 65 153 70 25 5 26 3 20
-30 -3 -20 -1 -33 4 -30 5 3 7 -3 4 -14 -3 -11 1 -27 8 -36 10 -13 10 -17 -1
-24 -8 -5 -21 -5 -29 -2 -9 4 -38 6 -66 5 -27 -2 -63 -3 -80 -4 -16 0 -33 -6
-37 -12 -5 -7 -8 -2 -8 13 -1 21 -2 23 -13 10 -7 -9 -42 -30 -79 -48 -41 -20
-78 -47 -94 -68 -28 -36 -28 -57 -1 -30 20 20 98 61 130 70 22 5 26 2 32 -27
4 -17 16 -49 26 -69 11 -21 19 -41 19 -45 0 -4 -19 -8 -42 -7 -24 0 -63 -4
-88 -8 -25 -5 -55 -10 -67 -13 -13 -2 -27 -6 -33 -10 -6 -4 -10 10 -10 37 0
49 -13 39 -30 -23 -6 -20 -28 -55 -50 -77 -22 -22 -40 -48 -40 -58 0 -16 2
-16 23 3 12 11 32 26 44 32 21 10 24 7 48 -43 14 -29 39 -71 55 -91 31 -39 31
-49 2 -51 -55 -3 -102 -18 -102 -32 0 -22 -45 33 -66 82 -10 23 -21 43 -24 46
-8 6 -140 231 -140 237 0 3 -8 17 -19 31 -10 15 -29 47 -43 72 -57 102 -791
1366 -798 1374 -5 5 -20 10 -35 11 -19 3 -29 -3 -37 -21z m2647 -1144 c3 -6
-1 -7 -9 -4 -18 7 -21 14 -7 14 6 0 13 -4 16 -10z m426 -217 c-12 -20 -14 -14
-5 12 4 9 9 14 11 11 3 -2 0 -13 -6 -23z m-761 -83 c8 -5 12 -11 10 -14 -3 -2
-14 2 -24 10 -22 15 -10 19 14 4z m95 -48 c-3 -3 -11 0 -18 7 -9 10 -8 11 6 5
10 -3 15 -9 12 -12z m744 -171 c-12 -39 -11 -42 17 -66 31 -26 27 -39 -16 -50
-19 -4 -41 5 -91 37 -36 24 -77 49 -92 57 -15 8 -27 18 -27 23 0 5 -4 7 -9 3
-5 -3 -12 -1 -16 5 -3 5 1 10 9 10 9 0 16 5 16 10 0 6 5 10 11 10 5 0 7 -5 3
-11 -5 -8 1 -10 17 -7 86 20 82 20 121 -17 l37 -35 11 41 c6 22 14 39 16 36 3
-3 0 -23 -7 -46z m87 -138 c0 -10 5 -17 12 -15 6 1 11 -2 10 -6 -4 -10 44
-106 55 -110 4 -2 7 -8 7 -14 0 -6 -27 16 -59 48 -59 57 -59 58 -45 86 17 32
22 35 20 11z m-4266 3 c0 -2 -8 -10 -17 -17 -16 -13 -17 -12 -4 4 13 16 21 21
21 13z m4190 -177 c55 -55 67 -73 58 -82 -6 -7 -20 -14 -31 -15 -11 0 -24 -7
-28 -14 -7 -10 -9 -10 -9 1 0 8 -3 11 -6 8 -4 -4 -23 6 -43 22 -20 15 -51 36
-68 47 -18 10 -33 21 -33 25 0 3 -18 14 -40 25 -22 10 -40 23 -40 28 0 4 -7 5
-16 2 -8 -3 -13 -2 -9 3 3 5 1 11 -5 13 -5 1 37 4 95 5 l105 2 70 -70z m-4289
18 c-10 -9 -11 -8 -5 6 3 10 9 15 12 12 3 -3 0 -11 -7 -18z m-21 -37 c-6 -11
-13 -20 -16 -20 -2 0 0 9 6 20 6 11 13 20 16 20 2 0 0 -9 -6 -20z m-49 -83
c-10 -9 -11 -8 -5 6 3 10 9 15 12 12 3 -3 0 -11 -7 -18z m3976 -89 c-3 -7 -5
-2 -5 12 0 14 2 19 5 13 2 -7 2 -19 0 -25z m-577 -118 c0 -5 -5 -10 -11 -10
-5 0 -7 5 -4 10 3 6 8 10 11 10 2 0 4 -4 4 -10z m740 -256 c61 -4 67 -6 97
-41 31 -36 49 -70 41 -78 -2 -2 -33 -7 -70 -11 l-66 -7 -43 45 c-24 24 -62 59
-83 77 l-39 33 49 -7 c27 -3 78 -8 114 -11z m-1172 -210 c28 -14 52 -30 52
-36 0 -5 7 -7 16 -4 8 3 13 2 10 -3 -7 -10 42 -33 55 -26 5 4 9 2 9 -3 0 -4
29 -21 65 -37 36 -16 65 -33 65 -37 0 -4 9 -8 20 -8 11 0 20 -5 20 -12 0 -6 3
-9 6 -5 4 3 13 -1 21 -9 8 -8 19 -12 24 -9 5 4 9 2 9 -2 0 -5 19 -21 43 -36
23 -16 58 -41 77 -58 l35 -29 -45 5 c-25 3 -58 10 -75 15 -30 9 -110 23 -120
21 -3 -1 -19 6 -35 14 -17 9 -30 14 -30 11 0 -2 -48 13 -107 33 l-106 36 -53
88 c-29 48 -50 87 -47 87 4 0 -1 8 -9 18 -9 9 -21 27 -27 40 l-12 22 43 -25
c24 -14 67 -37 96 -51z m922 -40 c14 -1 43 -7 65 -12 23 -5 51 -5 63 -1 12 5
22 4 22 0 0 -5 11 -8 25 -6 19 2 32 -6 49 -29 28 -38 39 -66 26 -67 -38 -5
-52 -7 -71 -8 -12 -1 -17 -5 -13 -13 5 -7 3 -8 -6 -3 -7 4 -30 8 -50 7 -26 -1
-43 4 -56 19 -17 19 -19 19 -26 2 -6 -14 -7 -12 -5 8 1 19 -9 36 -37 62 -21
20 -42 34 -47 31 -5 -3 -9 -1 -9 5 0 12 22 20 35 13 5 -4 21 -7 35 -8z m-4793
-13 c-3 -14 -1 -18 9 -14 8 3 11 10 7 17 -3 6 -2 7 3 3 5 -5 9 -14 10 -20 0
-7 2 -20 2 -31 2 -16 4 -17 20 -5 15 13 16 12 3 -3 -14 -19 -31 -15 -31 7 0 8
-5 17 -12 21 -7 5 -9 2 -6 -7 4 -10 -2 -15 -18 -17 -13 -1 -24 3 -24 8 0 5 7
7 16 3 14 -5 15 -3 6 14 -8 14 -8 23 0 31 17 17 21 15 15 -7z m304 -5 c-6 -7
-7 -17 -3 -21 4 -5 1 -5 -6 -1 -9 6 -10 11 -3 20 6 7 7 17 3 21 -4 5 -1 5 6 1
9 -6 10 -11 3 -20z m-66 -16 c3 -5 1 -10 -4 -10 -6 0 -11 5 -11 10 0 6 2 10 4
10 3 0 8 -4 11 -10z m-40 -12 c5 4 5 1 1 -6 -6 -10 -11 -10 -22 -1 -8 6 -14
14 -14 16 0 3 6 0 13 -6 8 -6 18 -7 22 -3z m-106 -32 c9 -11 9 -16 -1 -22 -7
-4 -10 -4 -6 1 4 4 3 14 -3 22 -6 7 -9 13 -6 13 2 0 10 -6 16 -14z m131 4 c0
-5 -2 -10 -4 -10 -3 0 -8 5 -11 10 -3 6 -1 10 4 10 6 0 11 -4 11 -10z m-153
-32 c-3 -8 -6 -5 -6 6 -1 11 2 17 5 13 3 -3 4 -12 1 -19z m37 -13 c-4 -8 -13
-15 -22 -15 -13 0 -12 3 4 15 24 18 25 18 18 0z m44 6 c-2 -21 4 -22 18 -5 14
18 15 18 4 -3 -13 -28 -13 -28 -33 -5 -14 15 -14 19 -3 19 8 0 15 -3 14 -6z
m52 -15 c0 -3 -4 -8 -10 -11 -5 -3 -10 -1 -10 4 0 6 5 11 10 11 6 0 10 -2 10
-4z m4717 -80 l-15 -56 31 5 32 4 -34 -15 c-18 -8 -35 -13 -38 -11 -2 3 4 34
13 71 9 37 19 65 21 62 2 -2 -2 -29 -10 -60z m-584 34 c-3 -12 -8 -19 -11 -16
-5 6 5 36 12 36 2 0 2 -9 -1 -20z m118 -15 c46 -14 92 -24 102 -21 9 2 15 0
11 -5 -3 -5 3 -10 13 -10 10 -1 27 -3 38 -5 11 -1 40 -5 65 -9 25 -3 56 -8 70
-11 14 -3 37 -5 53 -5 15 1 27 -4 27 -9 0 -6 6 -8 13 -5 6 4 3 -1 -7 -9 -11
-9 -30 -16 -44 -16 -15 0 -21 -4 -16 -12 5 -7 3 -8 -6 -3 -7 4 -60 9 -119 10
-58 2 -113 3 -122 4 -9 1 -39 21 -67 46 -27 25 -53 45 -57 45 -3 0 -13 7 -22
15 -8 8 -19 13 -24 10 -5 -4 -9 -1 -9 4 0 15 5 14 101 -14z m686 3 c-3 -8 -6
-5 -6 6 -1 11 2 17 5 13 3 -3 4 -12 1 -19z m-1161 -34 c135 -59 165 -76 213
-124 28 -28 51 -55 51 -60 0 -7 -40 -7 -60 0 -3 2 -8 2 -11 2 -3 -1 -27 5 -53
13 -43 13 -47 13 -52 -3 -14 -42 -14 -44 1 -38 8 3 15 2 15 -3 0 -4 7 -8 15
-9 8 -1 22 -3 30 -4 8 -1 15 -5 15 -8 0 -4 13 -10 29 -13 16 -3 31 -13 35 -22
4 -11 2 -14 -7 -8 -17 11 -29 11 -51 0 -13 -6 -16 -6 -12 2 5 7 -3 9 -22 5
-25 -5 -32 -1 -49 29 -13 21 -19 44 -16 60 4 22 0 28 -20 36 -22 9 -53 53
-114 164 -6 11 0 9 63 -19z m313 -120 c24 -8 50 -13 57 -10 7 3 14 0 16 -5 2
-5 14 -11 28 -13 55 -6 120 -29 120 -42 0 -8 5 -14 10 -14 6 0 5 -6 -2 -14 -9
-9 -15 -10 -20 -3 -3 6 -12 -10 -19 -34 -16 -57 -26 -69 -55 -69 -13 0 -24 -6
-25 -12 0 -10 -2 -10 -6 0 -2 6 -9 9 -15 6 -6 -4 -40 -6 -75 -5 -38 1 -71 -3
-79 -10 -12 -10 -13 -9 -8 5 4 12 1 16 -12 14 -39 -3 -94 2 -94 10 0 4 20 8
44 9 23 0 62 11 85 22 22 12 41 17 41 13 0 -9 117 -32 158 -32 14 0 21 11 29
43 l10 44 -41 2 c-23 1 -61 4 -86 6 -25 2 -50 4 -56 4 -6 1 -17 16 -24 34 -8
17 -20 40 -28 50 -18 21 -10 21 47 1z m400 -79 c2 -3 -1 -11 -9 -18 -7 -6 -10
-7 -7 -1 4 7 -11 9 -48 6 -44 -4 -55 -1 -55 10 0 12 12 14 57 11 31 -2 59 -6
62 -8z m-332 -47 c-3 -8 -6 -5 -6 6 -1 11 2 17 5 13 3 -3 4 -12 1 -19z m390 0
c-3 -8 -6 -5 -6 6 -1 11 2 17 5 13 3 -3 4 -12 1 -19z m-180 -40 c-3 -8 -6 -5
-6 6 -1 11 2 17 5 13 3 -3 4 -12 1 -19z"/>
<path d="M6355 6130 c3 -5 8 -10 11 -10 2 0 4 5 4 10 0 6 -5 10 -11 10 -5 0
-7 -4 -4 -10z"/>
<path d="M6518 6093 c7 -3 16 -2 19 1 4 3 -2 6 -13 5 -11 0 -14 -3 -6 -6z"/>
<path d="M6560 6080 c20 -13 33 -13 25 0 -3 6 -14 10 -23 10 -15 0 -15 -2 -2
-10z"/>
<path d="M6305 6025 l-30 -25 40 16 c43 18 104 20 132 6 12 -6 26 -4 41 3 23
12 23 12 -9 19 -17 3 -57 6 -88 6 -45 0 -62 -5 -86 -25z"/>
<path d="M5980 6010 c0 -13 -7 -20 -20 -20 -12 0 -20 -7 -20 -16 0 -12 6 -15
21 -11 15 4 22 -1 29 -18 12 -32 133 -160 138 -146 2 7 -16 33 -41 60 -88 94
-84 116 14 96 32 -7 56 -9 54 -5 -5 7 -28 13 -104 25 -44 7 -51 12 -51 36 0
10 -4 19 -10 19 -5 0 -10 -9 -10 -20z"/>
<path d="M6274 5957 c1 -44 49 -101 118 -141 25 -15 21 -8 -19 28 -29 26 -53
52 -53 56 0 5 15 4 32 -1 41 -11 44 -11 33 0 -6 6 -26 13 -45 16 -36 6 -50 19
-50 47 0 9 -4 19 -9 22 -4 3 -8 -9 -7 -27z"/>
<path d="M6018 5763 c7 -3 16 -2 19 1 4 3 -2 6 -13 5 -11 0 -14 -3 -6 -6z"/>
<path d="M5958 5533 c7 -3 16 -2 19 1 4 3 -2 6 -13 5 -11 0 -14 -3 -6 -6z"/>
<path d="M5570 5280 c0 -18 6 -20 57 -17 32 2 74 0 94 -3 21 -4 43 -3 51 1 9
6 7 8 -7 8 -11 0 -41 4 -67 10 -26 6 -56 8 -67 6 -12 -2 -21 1 -21 8 0 7 -4 6
-10 -3 -6 -10 -10 -11 -10 -2 0 6 -4 12 -10 12 -5 0 -10 -9 -10 -20z"/>
<path d="M5790 5256 c0 -2 9 -6 20 -9 11 -3 18 -1 14 4 -5 9 -34 13 -34 5z"/>
<path d="M5860 4969 c0 -7 3 -10 6 -7 3 4 19 2 35 -2 17 -5 29 -5 29 1 0 5 -6
9 -12 9 -7 0 -23 3 -35 6 -15 4 -23 2 -23 -7z"/>
<path d="M2702 4730 c-18 -29 -15 -38 4 -12 9 13 14 25 12 27 -2 2 -9 -5 -16
-15z"/>
<path d="M5640 4730 c0 -5 14 -10 32 -10 36 0 35 4 -4 14 -17 4 -28 2 -28 -4z"/>
<path d="M5741 4717 c28 -21 59 -36 59 -29 0 5 -11 14 -25 20 -24 11 -44 16
-34 9z"/>
<path d="M5944 4662 c8 -14 65 -36 73 -28 10 10 -9 23 -46 31 -21 4 -31 3 -27
-3z"/>
<path d="M6030 4633 c0 -15 2 -16 10 -3 8 13 10 12 10 -2 0 -10 2 -18 4 -18 2
0 20 -7 41 -15 36 -16 36 -16 33 7 -2 13 -9 22 -16 20 -7 -1 -26 5 -42 13 -37
19 -40 19 -40 -2z"/>
<path d="M1493 4355 c0 -8 4 -12 9 -9 5 3 6 10 3 15 -9 13 -12 11 -12 -6z"/>
<path d="M1533 4340 c-1 -11 2 -22 6 -24 4 -3 7 4 6 14 -2 27 -10 33 -12 10z"/>
<path d="M1575 4351 c-3 -5 -2 -12 3 -15 5 -3 9 1 9 9 0 17 -3 19 -12 6z"/>
<path d="M1657 4344 c-3 -3 -3 -12 -1 -19 4 -10 -1 -12 -18 -8 -13 3 -21 3
-18 0 3 -3 14 -7 25 -9 14 -2 20 3 21 20 1 24 1 25 -9 16z"/>
<path d="M1896 4342 c-2 -4 -1 -14 4 -22 7 -11 9 -9 7 8 -1 24 -3 26 -11 14z"/>
<path d="M1813 4327 c0 -7 9 -13 19 -13 10 0 18 1 18 3 0 1 -8 7 -18 12 -13 7
-19 6 -19 -2z"/>
<path d="M2012 4333 c-10 -4 -7 -9 8 -20 12 -8 19 -21 16 -29 -3 -8 1 -14 10
-14 11 0 12 4 5 19 -6 10 -7 22 -3 26 4 3 0 5 -8 3 -8 -1 -14 3 -12 10 1 6 1
12 0 11 -2 0 -9 -3 -16 -6z"/>
<path d="M2297 4328 c2 -5 10 -8 18 -8 8 0 16 3 18 8 3 4 -5 7 -18 7 -13 0
-21 -3 -18 -7z"/>
<path d="M2346 4323 c-3 -8 -1 -11 5 -8 5 4 16 1 24 -5 11 -10 15 -10 15 -1 0
7 4 9 10 6 6 -4 7 1 3 11 -4 11 -8 13 -11 6 -2 -7 -8 -12 -13 -12 -6 0 -8 4
-5 8 3 5 -1 9 -9 9 -8 0 -17 -7 -19 -14z"/>
<path d="M1275 4321 c-3 -5 -2 -12 3 -15 5 -3 9 1 9 9 0 17 -3 19 -12 6z"/>
<path d="M1757 4320 c8 -9 9 -19 2 -32 -13 -24 -24 -23 -26 2 -1 13 2 18 9 14
6 -4 8 -3 5 4 -4 5 -15 9 -25 7 -9 -2 -20 -4 -24 -4 -5 -1 -8 -8 -8 -16 0 -8
-5 -15 -12 -15 -6 0 -9 -2 -6 -5 8 -8 39 6 33 15 -3 5 -1 11 4 14 20 13 19
-24 -1 -38 -12 -9 -20 -17 -17 -19 2 -1 13 -9 23 -17 11 -8 17 -10 13 -4 -9
16 19 26 31 11 6 -7 12 -21 15 -32 4 -19 5 -18 6 2 0 12 -4 25 -9 28 -6 4 -7
11 -4 17 4 7 2 8 -4 4 -12 -7 -17 6 -6 17 9 9 35 -4 28 -15 -4 -5 4 -24 16
-41 18 -23 19 -29 7 -24 -10 4 -17 2 -17 -4 0 -15 63 -3 76 15 11 16 29 23 20
8 -2 -4 0 -14 6 -22 8 -12 9 -12 4 2 -3 10 -1 20 4 23 10 6 14 -6 11 -35 -1
-11 3 -9 14 5 14 18 14 21 -2 32 -10 8 -12 13 -4 13 7 0 9 5 5 12 -5 8 -10 7
-18 -4 -10 -14 -15 -14 -43 1 -18 9 -33 21 -35 26 -2 6 -11 9 -22 7 -16 -2
-17 0 -6 13 7 9 8 15 2 15 -6 0 -12 -6 -15 -12 -2 -7 -8 -10 -12 -6 -4 4 -2
14 5 23 7 9 10 18 6 22 -3 3 -6 1 -6 -7 0 -10 -3 -10 -17 1 -15 11 -16 11 -6
-1z m-28 -71 c-16 -10 -23 -4 -14 10 3 6 11 8 17 5 6 -4 5 -9 -3 -15z m96 11
c-3 -6 1 -13 9 -16 9 -3 13 -10 10 -16 -3 -5 -12 -1 -21 9 -13 17 -13 16 -3
-5 9 -18 14 -20 30 -12 16 8 18 8 14 -4 -10 -27 -33 -26 -54 3 -24 35 -25 38
-2 44 9 3 18 5 20 6 2 0 0 -4 -3 -9z"/>
<path d="M1455 4310 c-3 -5 -1 -10 4 -10 6 0 11 5 11 10 0 6 -2 10 -4 10 -3 0
-8 -4 -11 -10z"/>
<path d="M1570 4315 c0 -7 30 -13 34 -7 3 4 -4 9 -15 9 -10 1 -19 0 -19 -2z"/>
<path d="M1868 4313 c7 -3 16 -2 19 1 4 3 -2 6 -13 5 -11 0 -14 -3 -6 -6z"/>
<path d="M1935 4308 c-4 -10 -20 -14 -59 -12 -53 2 -54 2 -35 -17 10 -10 22
-19 25 -18 4 0 10 -5 14 -11 6 -10 13 -9 31 4 13 9 20 16 15 16 -5 0 -1 9 9
20 10 11 15 23 12 26 -4 4 -9 0 -12 -8z m-27 -41 c-7 -13 -13 -15 -22 -8 -7 6
-17 7 -21 3 -5 -4 -5 -2 -2 5 4 6 1 13 -5 16 -7 2 3 3 24 3 32 -1 35 -3 26
-19z"/>
<path d="M1513 4295 c0 -8 4 -15 9 -15 4 0 8 4 8 9 0 6 -4 12 -8 15 -5 3 -9
-1 -9 -9z"/>
<path d="M1605 4290 c-3 -5 -1 -10 4 -10 6 0 11 5 11 10 0 6 -2 10 -4 10 -3 0
-8 -4 -11 -10z"/>
<path d="M1646 4273 c-6 -14 -5 -15 5 -6 7 7 10 15 7 18 -3 3 -9 -2 -12 -12z"/>
<path d="M1570 4270 c-9 -6 -10 -10 -3 -10 6 0 15 5 18 10 8 12 4 12 -15 0z"/>
<path d="M1595 4259 c-4 -6 -5 -12 -2 -15 2 -3 7 2 10 11 7 17 1 20 -8 4z"/>
<path d="M1616 4255 c-3 -8 -1 -15 4 -15 6 0 10 7 10 15 0 8 -2 15 -4 15 -2 0
-6 -7 -10 -15z"/>
<path d="M1655 4250 c-3 -5 -3 -10 2 -11 4 -1 -3 -5 -17 -10 -24 -8 -24 -8 5
-6 18 1 29 -3 28 -10 -1 -6 5 -17 15 -25 15 -11 16 -11 5 3 -7 9 -10 19 -5 23
4 4 -2 12 -12 18 -15 8 -16 12 -5 19 9 6 10 9 2 9 -6 0 -15 -4 -18 -10z"/>
<path d="M1534 4238 c-4 -7 -3 -8 4 -4 6 4 22 2 34 -4 22 -11 22 -10 4 4 -24
19 -32 20 -42 4z"/>
<path d="M1740 4221 c0 -6 4 -13 10 -16 6 -3 7 1 4 9 -7 18 -14 21 -14 7z"/>
<path d="M1735 4193 c3 -3 -3 -16 -12 -27 -14 -15 -14 -18 -2 -8 9 6 18 9 22
6 3 -3 4 1 3 10 -1 8 -5 18 -9 21 -4 3 -5 2 -2 -2z"/>
<path d="M1870 4181 c0 -6 4 -13 10 -16 6 -3 7 1 4 9 -7 18 -14 21 -14 7z"/>
<path d="M1850 4171 c0 -6 4 -13 10 -16 6 -3 7 1 4 9 -7 18 -14 21 -14 7z"/>
<path d="M1993 4135 c0 -8 4 -12 9 -9 5 3 6 10 3 15 -9 13 -12 11 -12 -6z"/>
<path d="M2190 4141 c0 -6 4 -13 10 -16 6 -3 7 1 4 9 -7 18 -14 21 -14 7z"/>
<path d="M2237 4133 c4 -11 8 -11 13 -3 10 17 23 14 32 -7 7 -17 8 -17 5 1 -1
14 -10 20 -29 21 -19 1 -25 -2 -21 -12z"/>
<path d="M1616 4132 c-3 -5 1 -9 9 -9 8 0 12 4 9 9 -3 4 -7 8 -9 8 -2 0 -6 -4
-9 -8z"/>
<path d="M1670 4126 c7 -7 13 -7 20 0 6 6 3 10 -10 10 -13 0 -16 -4 -10 -10z"/>
<path d="M1759 4138 c-7 -23 -4 -35 7 -35 9 0 11 4 4 12 -5 7 -7 15 -3 18 3 4
3 7 0 7 -4 0 -7 -1 -8 -2z"/>
<path d="M2173 4115 c0 -8 4 -12 9 -9 5 3 6 10 3 15 -9 13 -12 11 -12 -6z"/>
<path d="M1710 4116 c0 -2 7 -7 16 -10 8 -3 12 -2 9 4 -6 10 -25 14 -25 6z"/>
<path d="M2255 4110 c-3 -5 -1 -10 4 -10 6 0 11 5 11 10 0 6 -2 10 -4 10 -3 0
-8 -4 -11 -10z"/>
<path d="M1627 4089 c7 -7 15 -10 18 -7 3 3 -2 9 -12 12 -14 6 -15 5 -6 -5z"/>
<path d="M1907 4089 c7 -7 15 -10 18 -7 3 3 -2 9 -12 12 -14 6 -15 5 -6 -5z"/>
<path d="M1756 4068 c3 -5 10 -6 15 -3 13 9 11 12 -6 12 -8 0 -12 -4 -9 -9z"/>
<path d="M1795 4070 c3 -5 8 -10 11 -10 2 0 4 5 4 10 0 6 -5 10 -11 10 -5 0
-7 -4 -4 -10z"/>
<path d="M6835 3099 c-4 -6 -5 -12 -2 -15 2 -3 7 2 10 11 7 17 1 20 -8 4z"/>
<path d="M4026 2605 c-11 -8 -15 -15 -9 -15 6 0 16 7 23 15 16 19 11 19 -14 0z"/>
</g>
</svg>
